<svg width="93" height="24" viewBox="0 0 93 24" fill="none" xmlns="http://www.w3.org/2000/svg">
<path d="M11 19C15.4183 19 19 15.4183 19 11C19 6.58172 15.4183 3 11 3C6.58172 3 3 6.58172 3 11C3 15.4183 6.58172 19 11 19Z" stroke="#929EAE" stroke-width="2" stroke-linecap="round" stroke-linejoin="round"/>
<path d="M21.0004 20.9999L16.6504 16.6499" stroke="#929EAE" stroke-width="2" stroke-linecap="round" stroke-linejoin="round"/>
<path d="M89.1892 14.0608L88.0592 12.1808C87.8092 11.7708 87.5892 10.9808 87.5892 10.5008V8.63078C87.5892 5.00078 84.6392 2.05078 81.0192 2.05078C77.3892 2.06078 74.4392 5.00078 74.4392 8.63078V10.4908C74.4392 10.9708 74.2192 11.7608 73.9792 12.1708L72.8492 14.0508C72.4192 14.7808 72.3192 15.6108 72.5892 16.3308C72.8592 17.0608 73.4692 17.6408 74.2692 17.9008C75.3492 18.2608 76.4392 18.5208 77.5492 18.7108C77.6592 18.7308 77.7692 18.7408 77.8792 18.7608C78.0192 18.7808 78.1692 18.8008 78.3192 18.8208C78.5792 18.8608 78.8392 18.8908 79.1092 18.9108C79.7392 18.9708 80.3792 19.0008 81.0192 19.0008C81.6492 19.0008 82.2792 18.9708 82.8992 18.9108C83.1292 18.8908 83.3592 18.8708 83.5792 18.8408C83.7592 18.8208 83.9392 18.8008 84.1192 18.7708C84.2292 18.7608 84.3392 18.7408 84.4492 18.7208C85.5692 18.5408 86.6792 18.2608 87.7592 17.9008C88.5292 17.6408 89.1192 17.0608 89.3992 16.3208C89.6792 15.5708 89.5992 14.7508 89.1892 14.0608ZM81.7492 10.0008C81.7492 10.4208 81.4092 10.7608 80.9892 10.7608C80.5692 10.7608 80.2292 10.4208 80.2292 10.0008V6.90078C80.2292 6.48078 80.5692 6.14078 80.9892 6.14078C81.4092 6.14078 81.7492 6.48078 81.7492 6.90078V10.0008ZM83.8297 20.01C83.4097 21.17 82.2997 22 80.9997 22C80.2097 22 79.4297 21.68 78.8797 21.11C78.5597 20.81 78.3197 20.41 78.1797 20C78.3097 20.02 78.4397 20.03 78.5797 20.05C78.8097 20.08 79.0497 20.11 79.2897 20.13C79.8597 20.18 80.4397 20.21 81.0197 20.21C81.5897 20.21 82.1597 20.18 82.7197 20.13C82.9297 20.11 83.1397 20.1 83.3397 20.07C83.4997 20.05 83.6597 20.03 83.8297 20.01Z" fill="#929EAE"/>
</svg>
